<svg xmlns="http://www.w3.org/2000/svg" fill="none" viewBox="0 0 44 44"><circle cx="22" cy="22" r="22" fill="url(#a)"/><g clip-path="url(#b)"><path fill="#fff" fill-rule="evenodd" d="M15.274 34.09c.503-.004 1.007-.01 1.509-.01q.173 0 .344.017h8.279l2.062.002c1.375.002 2.75.005 4.125-.002h.03c1.913-.017 3.448-1.525 3.437-3.376v-3.243l.003-.07c.005-.082.01-.175-.026-.174-.103.006-.266.042-.323.097-.44.284-.866.593-1.292.902-.852.62-1.704 1.238-2.663 1.649-3.73 1.217-7.03 1.275-10.532.456a.9.9 0 0 0-.445-.046 4 4 0 0 1-.447.015l-.08.002c-.345.01-.847.026-1.446.379-1.404.415-3.308.469-4.292.327v.006a.4.4 0 0 0-.047-.041c-.054-.04-.102-.077-.01-.153l.08-.051q.08-.054.16-.099c.751-.471 1.456-.986 1.92-1.746.63-.74.338-1.029-.22-1.579l-.02-.02c-2.716-2.682-3.515-5.527-3.232-9.354.338-2.1 1.335-3.907 2.773-5.481.87-.954 1.908-1.724 3.042-2.367q.026-.014.055-.027c.056-.024.114-.049.123-.123.007-.058-.09-.077-.125-.077q-.967-.001-1.92-.012c-1.261-.01-2.511-.022-3.792.012-1.839.05-3.515 1.275-3.485 3.458.008 3.858.005 7.714.003 11.569l-.003 5.78a3.376 3.376 0 0 0 3.266 3.365 71 71 0 0 0 3.189.016Zm-1.685-2.95.014.02q.15.128.3.26a10 10 0 0 0-.314-.28m2.945 2.67a.6.6 0 0 1-.1-.074l-.009-.002.008.008q.046.038.1.069Z" clip-rule="evenodd"/><path fill="#fff" d="M17.677 21.675c.865 0 1.678-.005 2.486 0 .453.006.7.189.745.538.052.438-.212.732-.705.737-.928.011-1.85.006-2.778.006-.27 0-.533.01-.802-.006-.333-.016-.66-.083-.82-.415-.16-.333-.046-.632.172-.904.883-1.086 1.77-2.178 2.659-3.265q.077-.1.154-.194c-.057-.094-.137-.05-.206-.055-.619-.006-1.243 0-1.862-.006q-.216-.001-.424-.044a.583.583 0 0 1-.453-.698.59.59 0 0 1 .442-.433q.207-.05.424-.05c1.02-.005 2.045-.005 3.065 0q.273-.006.538.061c.39.128.556.477.401.843-.137.316-.355.587-.573.859q-1.125 1.389-2.251 2.76c-.063.072-.12.144-.212.266"/><path fill="#fff" d="M24.323 18.76c.137-.171.28-.332.515-.377.453-.088.877.195.883.638.017 1.108.011 2.217 0 3.326a.66.66 0 0 1-.476.626.71.71 0 0 1-.802-.216c-.097-.117-.137-.139-.275-.033-.521.41-1.111.482-1.747.282-1.02-.321-1.438-1.092-1.553-2.028-.12-1.015.23-1.88 1.169-2.412.779-.448 1.57-.41 2.286.194m-2.028 2.024c.011.244.091.476.24.67.31.4.9.482 1.318.183a1 1 0 0 0 .19-.183c.32-.421.32-1.114 0-1.535a.87.87 0 0 0-.683-.35c-.63-.038-1.071.433-1.065 1.215m5.998.033c-.046-1.425.923-2.489 2.298-2.528 1.46-.044 2.526.904 2.572 2.29.046 1.402-.842 2.394-2.211 2.527-1.496.144-2.682-.903-2.659-2.29Zm1.438-.133a1.2 1.2 0 0 0 .247.776.955.955 0 0 0 1.317.166c.063-.044.115-.1.167-.155.332-.421.332-1.13.005-1.552a.89.89 0 0 0-.681-.35c-.62-.033-1.055.422-1.055 1.115m-1.942-.97c0 .859.006 1.718 0 2.577a.73.73 0 0 1-.722.732 1 1 0 0 1-.212-.022c-.286-.072-.504-.366-.504-.715v-4.407c0-.26-.006-.515 0-.776.006-.427.287-.704.71-.704.436-.005.728.272.728.715.006.865 0 1.735 0 2.6"/><path fill="#0068FF" d="M22.295 20.783c-.006-.782.435-1.253 1.06-1.22a.9.9 0 0 1 .681.355c.321.416.321 1.114 0 1.535-.309.4-.9.483-1.317.183a1 1 0 0 1-.19-.183 1.2 1.2 0 0 1-.234-.67m7.436-.1c0-.687.436-1.147 1.055-1.114a.89.89 0 0 1 .681.35c.327.42.327 1.135-.005 1.551a.967.967 0 0 1-1.324.15.7.7 0 0 1-.16-.161 1.23 1.23 0 0 1-.247-.776"/></g><defs><linearGradient id="a" x1="22" x2="22" y1="0" y2="44" gradientUnits="userSpaceOnUse"><stop offset="0" stop-color="#3985f7"/><stop offset="1" stop-color="#1272e8"/></linearGradient><clipPath id="b"><path fill="#fff" d="M8.79 9.902h26.363v24.2H8.79z"/></clipPath></defs></svg>