<svg xmlns="http://www.w3.org/2000/svg" fill="none" viewBox="0 0 44 44"><circle cx="22" cy="22" r="22" fill="url(#a)"/><path fill="#fff" fill-rule="evenodd" d="M14.009 9.356c.15.05.38.17.512.255.81.537 3.068 3.421 3.806 4.862.422.822.563 1.431.431 1.883-.137.485-.363.741-1.374 1.555-.405.328-.785.665-.845.754-.154.222-.277.656-.277.963.004.712.465 2.003 1.07 2.995.47.771 1.31 1.76 2.143 2.518.977.895 1.839 1.504 2.812 1.986 1.25.622 2.014.78 2.573.52.14-.064.29-.15.337-.188.043-.038.371-.439.73-.882.691-.87.849-1.01 1.323-1.172.601-.204 1.216-.149 1.834.167.47.242 1.494.877 2.155 1.338.87.609 2.731 2.125 2.983 2.428.444.545.52 1.244.222 2.015-.316.814-1.545 2.34-2.403 2.991-.776.588-1.326.814-2.052.848-.597.03-.845-.021-1.609-.336-5.99-2.467-10.774-6.149-14.572-11.206q-2.978-3.961-4.527-8.223c-.602-1.657-.632-2.377-.137-3.225.214-.358 1.122-1.245 1.784-1.739 1.1-.818 1.608-1.12 2.014-1.205.277-.06.76-.013 1.067.098" clip-rule="evenodd"/><defs><linearGradient id="a" x1="22" x2="22.1219" y1="-7.26346e-09" y2="40.5458" gradientUnits="userSpaceOnUse"><stop offset="0" stop-color="#e8434c"/><stop offset="1" stop-color="#d61114"/></linearGradient></defs></svg>