<svg xmlns="http://www.w3.org/2000/svg" width="48" height="48" viewBox="0 0 24 24" fill="none" aria-hidden="true">
  <defs>
    <linearGradient id="hqBox" x1="12" y1="9" x2="12" y2="21.5" gradientUnits="userSpaceOnUse">
      <stop stop-color="#ffffff"/>
      <stop offset="0.55" stop-color="#f1f5f9"/>
      <stop offset="1" stop-color="#e2e8f0"/>
    </linearGradient>
    <linearGradient id="hqLid" x1="12" y1="8.5" x2="12" y2="12.5" gradientUnits="userSpaceOnUse">
      <stop stop-color="#f0f9ff"/>
      <stop offset="0.5" stop-color="#dbeafe"/>
      <stop offset="1" stop-color="#bfdbfe"/>
    </linearGradient>
    <linearGradient id="hqRib" x1="12" y1="5" x2="12" y2="16" gradientUnits="userSpaceOnUse">
      <stop stop-color="#86efac"/>
      <stop offset="0.45" stop-color="#4ade80"/>
      <stop offset="1" stop-color="#16a34a"/>
    </linearGradient>
    <linearGradient id="hqRibD" x1="12" y1="13" x2="12" y2="15.5" gradientUnits="userSpaceOnUse">
      <stop stop-color="#22c55e"/>
      <stop offset="1" stop-color="#15803d"/>
    </linearGradient>
    <radialGradient id="hqRa" cx="32%" cy="28%" r="72%">
      <stop offset="0%" stop-color="#fecaca"/>
      <stop offset="0.5" stop-color="#ef4444"/>
      <stop offset="100%" stop-color="#991b1b"/>
    </radialGradient>
    <radialGradient id="hqRo" cx="35%" cy="30%" r="70%">
      <stop offset="0%" stop-color="#ffedd5"/>
      <stop offset="0.45" stop-color="#fb923c"/>
      <stop offset="100%" stop-color="#c2410c"/>
    </radialGradient>
    <radialGradient id="hqRg" cx="30%" cy="30%" r="68%">
      <stop offset="0%" stop-color="#bbf7d0"/>
      <stop offset="0.55" stop-color="#22c55e"/>
      <stop offset="100%" stop-color="#14532d"/>
    </radialGradient>
    <clipPath id="hqClip">
      <rect x="5.2" y="12.3" width="13.6" height="8.7" rx="0.65"/>
    </clipPath>
  </defs>

  <rect x="4.5" y="9.25" width="15" height="12.25" rx="1.2" fill="url(#hqBox)" stroke="#334155" stroke-width="1.05" stroke-linejoin="round"/>
  <rect x="5.35" y="9.25" width="13.3" height="3.85" rx="0.55" fill="url(#hqLid)" stroke="#64748b" stroke-width="0.65"/>
  <path stroke="#fff" stroke-width="0.55" stroke-linecap="round" opacity="0.65" d="M6.2 10.35h11.6"/>

  <g clip-path="url(#hqClip)">
    <circle cx="8.1" cy="16.35" r="2.05" fill="url(#hqRa)" stroke="#7f1d1d" stroke-width="0.5"/>
    <circle cx="15.9" cy="16.35" r="2.05" fill="url(#hqRa)" stroke="#7f1d1d" stroke-width="0.5"/>
    <circle cx="12" cy="17.1" r="1.75" fill="url(#hqRo)" stroke="#9a3412" stroke-width="0.48"/>
    <circle cx="9.35" cy="14.35" r="1.45" fill="url(#hqRo)" stroke="#9a3412" stroke-width="0.42"/>
    <circle cx="14.65" cy="14.35" r="1.45" fill="url(#hqRo)" stroke="#9a3412" stroke-width="0.42"/>
    <g stroke="#166534" stroke-width="0.26">
      <circle cx="11.15" cy="13.35" r="0.92" fill="url(#hqRg)"/>
      <circle cx="12.85" cy="13.35" r="0.92" fill="url(#hqRg)"/>
      <circle cx="12" cy="14.35" r="0.88" fill="url(#hqRg)"/>
      <circle cx="11.4" cy="15.15" r="0.78" fill="url(#hqRg)"/>
      <circle cx="12.6" cy="15.15" r="0.78" fill="url(#hqRg)"/>
    </g>
    <g fill="#fff" opacity="0.5">
      <circle cx="10.85" cy="12.95" r="0.22"/>
      <circle cx="12.5" cy="12.85" r="0.2"/>
      <circle cx="11.25" cy="14.55" r="0.18"/>
    </g>
  </g>

  <path fill="url(#hqRibD)" stroke="#14532d" stroke-width="0.42" d="M4.35 13.85h15.3v1.85H4.35z"/>
  <path fill="url(#hqRibD)" stroke="#14532d" stroke-width="0.42" d="M11.05 5.4h1.9v15.9h-1.9z"/>
  <ellipse cx="9.85" cy="6.2" rx="2.05" ry="1.22" fill="url(#hqRib)" stroke="#14532d" stroke-width="0.42" transform="rotate(-38 9.85 6.2)"/>
  <ellipse cx="14.15" cy="6.2" rx="2.05" ry="1.22" fill="url(#hqRib)" stroke="#14532d" stroke-width="0.42" transform="rotate(38 14.15 6.2)"/>
  <circle cx="12" cy="6.38" r="0.92" fill="#14532d" stroke="#052e16" stroke-width="0.24"/>
  <ellipse cx="11.28" cy="5.98" rx="0.48" ry="0.18" fill="#fff" opacity="0.4"/>
</svg>
