<svg xmlns="http://www.w3.org/2000/svg" width="48" height="48" viewBox="0 0 24 24" fill="none" aria-hidden="true">
  <rect x="6.65" y="12.55" width="10.7" height="7.45" rx="0.15" fill="#EF3340"/>
  <rect x="6.65" y="12.42" width="10.7" height="0.4" fill="#C81D25"/>
  <rect x="5.35" y="8.05" width="13.3" height="4.5" rx="0.2" fill="#EF3340"/>
  <rect x="10.18" y="8.05" width="3.65" height="11.95" fill="#FFD700"/>
  <rect x="5.62" y="8.32" width="12.76" height="3.96" rx="0.14" fill="none" stroke="#C81D25" stroke-width="0.34"/>
  <ellipse cx="9.25" cy="8.05" rx="1.75" ry="1.05" fill="#FFD700" transform="rotate(-38 9.25 8.05)"/>
  <ellipse cx="8.95" cy="8.12" rx="0.95" ry="0.65" fill="#E6B800" transform="rotate(-38 8.95 8.12)"/>
  <ellipse cx="14.75" cy="8.05" rx="1.75" ry="1.05" fill="#FFD700" transform="rotate(38 14.75 8.05)"/>
  <ellipse cx="15.05" cy="8.12" rx="0.95" ry="0.65" fill="#E6B800" transform="rotate(38 15.05 8.12)"/>
  <circle cx="12" cy="8.18" r="0.82" fill="#FFD700"/>
  <circle cx="12" cy="8.18" r="0.44" fill="#E6B800"/>
  <rect x="6.97" y="12.88" width="10.06" height="6.79" rx="0.1" fill="none" stroke="#C81D25" stroke-width="0.34"/>
</svg>
