<svg xmlns="http://www.w3.org/2000/svg" width="48" height="48" viewBox="0 0 24 24" aria-hidden="true">
  <defs>
    <linearGradient id="g" x1="20%" y1="0%" x2="80%" y2="100%">
      <stop offset="0%" stop-color="#fda4af"/>
      <stop offset="50%" stop-color="#f43f5e"/>
      <stop offset="100%" stop-color="#be123c"/>
    </linearGradient>
  </defs>
  <g transform="translate(12,12) scale(0.74) translate(-12,-12)">
    <path fill="url(#g)" stroke="#9f1239" stroke-width="1.1" stroke-linejoin="round"
      d="M12 3.5c-.8 1.6-2.2 2.4-4 2.4-2.8 0-5 2.6-5 7.1 0 4.2 2.4 8 6 8h6c3.6 0 6-3.8 6-8 0-4.5-2.2-7.1-5-7.1-1.8 0-3.2-.8-4-2.4z"/>
    <path fill="#4ade80" stroke="#15803d" stroke-width="1" stroke-linecap="round" stroke-linejoin="round"
      d="M12 2.2v2M14.2 3.4l1.4-1.6c.4.8.3 1.6-.2 2.1-.5.6-1.3.7-2 .5"/>
    <path fill="#854d0e" d="M11.3 4.2c.4-.3 1-.3 1.4 0 .2.2.2.6 0 .8l-.2.3h-1l-.2-.3c-.2-.2-.2-.6 0-.8z"/>
  </g>
</svg>
