<svg xmlns="http://www.w3.org/2000/svg" width="48" height="48" viewBox="0 0 24 24" fill="none" aria-hidden="true">
  <defs>
    <radialGradient id="c1" cx="38%" cy="28%" r="72%">
      <stop offset="0%" stop-color="#fff1f2"/>
      <stop offset="0.18" stop-color="#fda4af"/>
      <stop offset="0.45" stop-color="#fb7185"/>
      <stop offset="0.75" stop-color="#f43f5e"/>
      <stop offset="100%" stop-color="#e11d48"/>
    </radialGradient>
    <radialGradient id="c2" cx="36%" cy="26%" r="74%">
      <stop offset="0%" stop-color="#ffe4e6"/>
      <stop offset="0.22" stop-color="#fb7185"/>
      <stop offset="0.52" stop-color="#f43f5e"/>
      <stop offset="100%" stop-color="#db2777"/>
    </radialGradient>
    <linearGradient id="stem" x1="50%" y1="100%" x2="50%" y2="0%">
      <stop offset="0%" stop-color="#15803d"/>
      <stop offset="100%" stop-color="#bef264"/>
    </linearGradient>
    <linearGradient id="leaf" x1="0%" y1="0%" x2="100%" y2="100%">
      <stop offset="0%" stop-color="#bbf7d0"/>
      <stop offset="0.5" stop-color="#4ade80"/>
      <stop offset="100%" stop-color="#16a34a"/>
    </linearGradient>
  </defs>

  <!-- Cherry trái -->
  <circle cx="8.55" cy="14.45" r="4.05" fill="url(#c2)" stroke="#fb7185" stroke-width="0.85"/>
  <ellipse cx="6.85" cy="12.65" rx="1.45" ry="0.95" fill="#ffffff" opacity="0.92"/>
  <ellipse cx="7.35" cy="13.1" rx="0.55" ry="0.35" fill="#fff" opacity="0.65"/>
  <ellipse cx="9.15" cy="16.15" rx="1.1" ry="0.7" fill="#be123c" opacity="0.22"/>

  <!-- Cherry phải -->
  <circle cx="15.6" cy="13.85" r="4.25" fill="url(#c1)" stroke="#fda4af" stroke-width="0.82"/>
  <ellipse cx="13.85" cy="11.95" rx="1.55" ry="1" fill="#ffffff" opacity="0.94"/>
  <ellipse cx="14.4" cy="12.45" rx="0.58" ry="0.38" fill="#fff" opacity="0.7"/>
  <ellipse cx="16.2" cy="15.45" rx="1.15" ry="0.72" fill="#e11d48" opacity="0.2"/>

  <!-- Cuống: xanh sáng -->
  <path fill="none" stroke="#166534" stroke-width="0.95" stroke-linecap="round" stroke-linejoin="round"
    d="M8.55 10.45 Q7.9 8.9 9.15 7.75 10.4 6.65 12 6.25"/>
  <path fill="none" stroke="url(#stem)" stroke-width="0.62" stroke-linecap="round"
    d="M8.55 10.45 Q7.9 8.9 9.15 7.75 10.4 6.65 12 6.25"/>
  <path fill="none" stroke="#166534" stroke-width="0.95" stroke-linecap="round" stroke-linejoin="round"
    d="M15.6 9.75 Q16.45 8.35 15.15 7.25 13.9 6.3 12.1 6.25"/>
  <path fill="none" stroke="url(#stem)" stroke-width="0.62" stroke-linecap="round"
    d="M15.6 9.75 Q16.45 8.35 15.15 7.25 13.9 6.3 12.1 6.25"/>
  <path fill="none" stroke="#166534" stroke-width="1.05" stroke-linecap="round"
    d="M12 6.25V3.65"/>
  <path fill="none" stroke="url(#stem)" stroke-width="0.68" stroke-linecap="round"
    d="M12 6.25V3.65"/>

  <!-- Lá tươi -->
  <path fill="url(#leaf)" stroke="#15803d" stroke-width="0.75" stroke-linejoin="round"
    d="M12.2 5.35c1.25-.35 2.4.2 2.95 1.15.4.72.32 1.58-.25 2.2-.42.45-1.05.75-1.72.78-.22-.95-.68-1.78-1.38-2.38-.35-.3-.78-.52-1.25-.65z"/>
  <path fill="none" stroke="#15803d" stroke-width="0.35" stroke-linecap="round" opacity="0.85"
    d="M13.05 5.85 Q14 6.5 14.45 7.5M13.4 6l.95.42"/>
</svg>
